# xmcd
#
# Track frame offsets: 
#        150
#        20916
#        38199
#        58577
#        84204
#        111431
#        146770
#        172286
#        195273
#        206984
#        227275
#
# Disc length: 3231 seconds
#
# Revision: 3
# Processed by: cddbd v1.5.2PL0 Copyright (c) Steve Scherf et al.
# Submitted via: ExactAudioCopy v1.3
#
DISCID=9a0c9d0b
DTITLE=Ryan McGarvey - Redefined
DYEAR=2012
DGENRE=Blues Rock
TTITLE0=All The Little Things
TTITLE1=Never Seem To Learn
TTITLE2=My Sweet Angel
TTITLE3=Starry Night
TTITLE4=Blues Knockin' At My Door
TTITLE5=Prove Myself
TTITLE6=Blue Morning Night
TTITLE7=So Close To Heaven
TTITLE8=Downright Insane
TTITLE9=Pennies
TTITLE10=Four Graces
EXTD=
EXTT0=
EXTT1=
EXTT2=
EXTT3=
EXTT4=
EXTT5=
EXTT6=
EXTT7=
EXTT8=
EXTT9=
EXTT10=
PLAYORDER=
